<?xml version="1.0" encoding="iso-8859-1"?>
<!-- Generator: Adobe Illustrator 16.0.0, SVG Export Plug-In . SVG Version: 6.00 Build 0)  -->
<!DOCTYPE svg PUBLIC "-//W3C//DTD SVG 1.1//EN" "http://www.w3.org/Graphics/SVG/1.1/DTD/svg11.dtd">
<svg version="1.1" id="Capa_1" xmlns="http://www.w3.org/2000/svg" xmlns:xlink="http://www.w3.org/1999/xlink" x="0px" y="0px"
	 width="97.386px" height="97.386px" viewBox="0 0 97.386 97.386" style="enable-background:new 0 0 97.386 97.386;"
	 xml:space="preserve">
<g>
	<g>
		<path d="M49.481,45.874c-2.066,1.283-4.135,2.01-6.312,2.467c-3.193,0.671-6.396,0.671-9.586,0.059
			c-2.756-0.528-5.017-2.016-6.841-4.089c-3.615-4.108-6.22-8.751-6.991-14.257c-1.057-7.544,1.588-13.655,7.375-18.45
			c4.152-3.44,9.083-5.107,14.32-6.037c8.217-1.457,15.988,0.141,23.509,3.394c3.861,1.671,7.593,3.647,11.581,5.026
			c0.88,0.305,1.771,0.58,2.697,0.711c1.671,0.234,3.04-0.332,4.141-1.574c1.438-1.625,1.944-3.58,1.94-5.707
			c0.404-0.023,0.488,0.293,0.617,0.531c1.227,2.254,0.877,5.921-0.788,7.83c-1.742,2-4.059,2.356-6.521,2.071
			c-2.798-0.323-5.457-1.14-8.008-2.355c-4.793-2.285-9.655-4.394-14.863-5.573c-6.52-1.477-12.988-1.217-19.317,0.885
			c-9.215,3.061-14.059,12.217-11.55,21.614c1.447,5.423,4.497,9.694,9.261,12.714c2.061,1.307,4.333,1.717,6.73,1.686
			c2.426-0.035,4.79-0.508,7.159-0.956C48.444,45.785,48.844,45.683,49.481,45.874z"/>
		<path d="M59.172,92.101c-0.442-0.148-1.268,0.346-1.399-0.271c-0.129-0.603,0.733-0.801,1.234-1.011
			c3.056-1.271,6.137-2.485,9.194-3.754c1.903-0.79,3.76-1.683,5.469-2.849c0.587-0.401,1.127-0.857,1.603-1.388
			c0.756-0.843,0.938-1.732,0.497-2.839c-2.325-5.822-4.921-11.54-6.959-17.478c-1.643-4.788-2.946-9.643-3.293-14.735
			c-0.408-6.007,1.672-10.678,6.856-13.893c2.443-1.518,5.067-2.649,7.694-3.785c3.248-1.404,6.463-2.844,9.312-5.02
			c4.264-3.252,5.664-7.613,5.299-12.758c-0.164-2.316-0.551-4.591-1.08-6.848c-0.061-0.256-0.409-0.634,0.052-0.832
			c0.415-0.18,0.636,0.143,0.815,0.472c1.388,2.523,2.473,5.141,2.812,8.04c0.655,5.577-1.785,9.83-5.644,13.51
			c-2.462,2.348-5.485,3.801-8.467,5.316c-2.693,1.369-5.473,2.58-8.01,4.243c-2.766,1.812-5.058,4.019-5.819,7.388
			c-0.62,2.74-0.117,5.451,0.435,8.134c1.214,5.899,3.603,11.394,5.962,16.893c1.22,2.837,2.52,5.641,3.49,8.574
			c1.565,4.729,0.259,8.376-3.95,11.032c-3.027,1.908-6.42,2.743-9.9,3.298C63.339,91.863,61.282,91.964,59.172,92.101z"/>
		<path d="M18.435,35.377c-0.075,0.492-0.354,0.866-0.621,1.247c-4.5,6.421-8.355,13.191-11.262,20.491
			c-2.025,5.087-2.511,10.282-1.174,15.597c1.655,6.575,6.033,10.635,12.205,13.022c4.475,1.73,9.14,2.562,13.873,3.119
			c6.577,0.778,13.18,1.297,19.771,1.937c0.634,0.061,1.261,0.236,1.88,0.403c0.298,0.08,0.683,0.202,0.642,0.605
			c-0.05,0.467-0.482,0.327-0.774,0.351c-4.267,0.347-8.54,0.54-12.821,0.604c-6.023,0.09-12.067,0.132-18.007-0.869
			c-9.651-1.626-17.131-6.43-20.761-15.91c-1.946-5.087-1.701-10.386-0.134-15.552c2.351-7.75,5.908-14.862,11.699-20.686
			c1.5-1.507,3.19-2.803,4.844-4.135C17.956,35.474,18.105,35.271,18.435,35.377z"/>
		<path d="M34.902,70.655c6.825-1.119,13.637-1.732,20.499-0.911c3.269,0.393,3.89,1.062,3.966,4.359
			c0.123,5.218-0.606,10.335-2.086,15.341c-0.247,0.833-0.553,1.653-1.07,2.365c-0.204,0.281-0.431,0.635-0.85,0.488
			c-0.37-0.129-0.32-0.521-0.336-0.834c-0.1-2.23,0.265-4.429,0.471-6.639c0.295-3.165,0.825-6.315,0.533-9.521
			c-0.093-1.014-0.558-1.631-1.458-2.063c-2.661-1.275-5.516-1.69-8.401-1.974c-3.526-0.343-7.072-0.31-10.605-0.521
			C35.342,70.732,35.124,70.686,34.902,70.655z"/>
	</g>
</g>
<g>
</g>
<g>
</g>
<g>
</g>
<g>
</g>
<g>
</g>
<g>
</g>
<g>
</g>
<g>
</g>
<g>
</g>
<g>
</g>
<g>
</g>
<g>
</g>
<g>
</g>
<g>
</g>
<g>
</g>
</svg>
